<svg viewBox="0 0 32 32" xmlns="http://www.w3.org/2000/svg"><path d="M17.66 30.51a.3.3 0 0 0-.1-.3l-1.87-1.74a.3.3 0 0 0-.16-.08l-6.49-1.18h-.05q-.25.01-.31.26l-.3 1.72a.3.3 0 0 0 .12.3l1.44 1.05.12.05 6.96 1.4c.16.04.32-.07.36-.23z" fill="#0087db"/><clipPath id="a"><path d="M17.66 30.51a.3.3 0 0 0-.1-.3l-1.87-1.74a.3.3 0 0 0-.16-.08l-6.49-1.18h-.05q-.25.01-.31.26l-.3 1.72a.3.3 0 0 0 .12.3l1.44 1.05.12.05 6.96 1.4c.16.04.32-.07.36-.23z"/></clipPath><g clip-path="url(#a)"><path d="M17.95 30.38q.06.01.07.08 0 .08-.09.09h-.02l-7.48-1.5-.4 1.93q0 .06-.07.07a.1.1 0 0 1-.09-.08v-.02l.42-2.01q.01-.08.1-.07z" fill="#00ade7"/></g><path d="M8.74 27.5a.09.09 0 0 1 .12-.12l1.5 1.53a.09.09 0 1 1-.12.12z" fill="#00ade7"/><path d="m19.96 12.2-3.81 17.41-4.6-.94-1.31-1.04 3.62-16.88z" fill="#0087db"/><clipPath id="b"><path d="m19.96 12.2-3.81 17.41-4.6-.94-1.31-1.04 3.62-16.88z"/></clipPath><g clip-path="url(#b)"><path d="M19.43 16.18q.05.01.06.07 0 .08-.09.09l-4.95-.95-.03-.01-1.74-1.04a.08.08 0 0 1 .03-.16q.04 0 .06.02l1.72 1.03zm-.52 4.52q.07.01.06.1a.1.1 0 0 1-.1.06l-5.32-1.1h-.03l-2.15-1.26a.1.1 0 0 1-.06-.08.08.08 0 0 1 .14-.06l2.14 1.25zm-.54 2.22q.06.01.07.08a.1.1 0 0 1-.1.08l-5.15-1.09-.02-.01-2.33-1.45-.04-.07q.01-.07.08-.08.03 0 .05.02l2.31 1.43zm-.46 2.1q.06.01.06.08t-.08.08h-.01l-5.31-1.04-.03-.01-2.27-1.32-.04-.07v-.04a.1.1 0 0 1 .12-.03l2.26 1.31zm-.43 2.56q.05.01.06.08-.01.07-.08.08h-.02l-5.37-1.15-.02-.01-2.34-1.46-.04-.07a.08.08 0 0 1 .13-.07l2.32 1.45zm1.32-9.14q.07.03.06.1t-.08.07h-.02l-4.78-1.02h-.02l-1.77-1.06-.05-.07a.08.08 0 0 1 .13-.07l1.76 1.05z" fill="#006fb1"/><path d="M14.8 13.4a.08.08 0 0 1 .16.02v.01L11.7 28.31q-.01.05-.08.06a.1.1 0 0 1-.08-.08v-.02z" fill="#00ade7"/></g><path d="M16.04 29.12q.06.01.07.07 0 .08-.09.09h-.01l-4.46-.9h-.03l-1.28-.98a.08.08 0 0 1 .05-.14l.05.01 1.26.96z" fill="#33242a"/><path d="M14.54 8.75a4 4 0 0 0-.78 1.27c-.22.68-.17 2.08-.96 1.98-.69-.08-1.56-.82-2.13-1.03-1.13-.42-2.33-.26-2.78.99.42-.14.71-.06 1.14-.11l-.1 1.13q.51-.36 1.08-.59c.22.25.44.52.72.7.88.59 2.03.6 2.91 0 .53-.34.91-.9 1.25-1.43.56-.86.75-1.92 1.32-2.78z" fill="#009762"/><path d="M20.54 13.37c.7.03 2.3-.11 2.48-.86.17-.74-1.3-2.06-1.87-2.04zm.23-3.47c1.5.49 3.2-.69 3.33-1.32.14-.64-1.4-1.87-2.58-1.9z" fill="#ff5e06"/><path d="M21.77 6.74c.84-.43 2.3-2.52 1.88-3.06-.45-.58-2.4-.47-3.56.5zm-1.86-2.58c.77-1.66.43-3.5-.17-3.58-.86-.13-1.96 1.64-2.31 2.71zm-3.17-1.35c.04-.33-.01-2.65-.85-2.8-.6-.11-1.46 1.92-1.62 2.66z" fill="#ff5e06"/><path d="M19.98 16.08a36 36 0 0 1-6.04-1.19q-.91-.34-1.76-.83l.9-4.67c-2.02-.27-3.76-.77-4.42-1.41-.25-.24-.48-.97-.16-2.87.29-1.7.6-1.92.74-2.14.7-1.17 3.9-1.37 6.08-.96 3.03.57 6.45 1.44 6.91 2.98.53 1.74-1.06 7.56-2.25 11.09" fill="#009762"/><clipPath id="c"><path d="M19.98 16.08a36 36 0 0 1-6.04-1.19q-.91-.34-1.76-.83l.9-4.67c-2.02-.27-3.76-.77-4.42-1.41-.25-.24-.48-.97-.16-2.87.29-1.7.6-1.92.74-2.14.7-1.17 3.9-1.37 6.08-.96 3.03.57 6.45 1.44 6.91 2.98.53 1.74-1.06 7.56-2.25 11.09"/></clipPath><g clip-path="url(#c)"><path d="M15.1 10.08q.02-.06.08-.07a.1.1 0 0 1 .08.1l-1.12 5.28q-.01.06-.08.06h-.02a.1.1 0 0 1-.06-.1z" fill="#00d084"/></g><path d="M12.3 13.42q0 .05-.07.06h-.01a.1.1 0 0 1-.06-.07v-.02l.3-1.58q.02-.05.07-.05.07 0 .08.07v.01z" fill="#33242a"/><path d="M21.8 5.99a.08.08 0 0 1 .16 0c0 1.56-.8 4.76-1.47 7.45q-.02.06-.08.06a.1.1 0 0 1-.08-.1C21 10.72 21.8 7.55 21.79 6m-7.15 2.35-.3-1.04-.78.95zm-1.83-.28-.5-.94-.7.75zm-2.98-.8-.5-.94-.57.58zm4.1 1.1-.6.7-.57-.98z" fill="#fff"/><path d="M8.21 6.78a.1.1 0 0 1-.05-.08v-.02a.1.1 0 0 1 .11-.05 27 27 0 0 0 5.58 1.51c.45.09 1.13.26 1.77.23.62-.03 1.2-.25 1.51-.98a.1.1 0 0 1 .1-.04l.26.06q.15 0 .28.05c.52.1 1.03.24 1.56.23 1.03-.02 2.32-.42 3-1.2l.06-.02a.08.08 0 0 1 .06.13 4.5 4.5 0 0 1-3.12 1.25c-.54.01-1.07-.12-1.6-.23l-.25-.05-.23-.05c-.35.74-.97.98-1.62 1.02-.66.03-1.35-.15-1.81-.24a27 27 0 0 1-5.6-1.52m8.13 2.69a.08.08 0 0 1 .13.06q0 .04-.03.07-.45.33-1.3.3c-.82-.02-1.95-.27-3.45-.64a.1.1 0 0 1-.07-.08.1.1 0 0 1 .1-.08c1.5.36 2.61.61 3.43.64q.77.02 1.19-.28" fill="#33242a"/><path d="M18.3 6.68a1.33 1.33 0 0 0-1.57 1.3c0 .57.37 1.07.9 1.25 1 .32 1.93-.94 1.48-1.84l-.03-.06a1.1 1.1 0 0 0-.77-.65" fill="#009762"/><path d="M18.32 6.61q.58.15.82.68l.04.07c.24.47.11 1.04-.2 1.45-.32.41-.84.66-1.37.49a1.37 1.37 0 0 1-.86-1.81c.28-.7 1-1 1.58-.87m-.03.14A1.25 1.25 0 0 0 16.8 8c0 .53.35 1 .85 1.17.48.15.93-.07 1.2-.44.3-.36.41-.87.2-1.3L19 7.36c-.13-.3-.4-.53-.72-.6" fill="#33242a"/><path d="m17.19 7-.02-.04q0-.04.04-.06l.04-.01.06.03c.56.82.84 1.15 1.4 1.97q.02 0 .02.04a.07.07 0 0 1-.13.04c-.56-.82-.85-1.15-1.41-1.97" fill="#33242a"/><path d="M20.01 5.42c.2.2.1.65-.24.97s-.78.41-.99.2-.1-.65.25-.97.78-.42.98-.2" fill="#f57880"/><path d="M18.94 15.94q.06.01.06.08t-.08.08h-.01l-4.49-.85-.02-.01-2.3-1.12a.1.1 0 0 1-.05-.09l.1-.61q.01-.07.08-.07t.08.08v.01l-.09.56 2.24 1.09z" fill="#33242a"/><path d="M18.57 12.95c-.58-.47-1.4-.1-1.67.68-.26.8-.27 1.63-1 2-.64.35-1.45-.33-2.05-.56-1.17-.45-2.56-.16-2.93 1.21l1.33-.23c-.01.42-.1.86-.1 1.28l1.13-.69c.23.28.47.57.77.77.94.64 2.4.6 3.25-.04.51-.39.8-.75 1.1-1.33.52-.96.91-2.47.17-3.1z" fill="#009762"/><path d="M18.62 12.89c.31.26.44.67.44 1.14a4.8 4.8 0 0 1-1.7 3.41c-.88.66-2.4.7-3.36.03-.28-.19-.51-.46-.74-.72l-1.06.65a.1.1 0 0 1-.09 0l-.04-.07c0-.38.07-.8.1-1.18-.48.08-.75.14-1.24.21h-.01a.1.1 0 0 1-.08-.08v-.02c.39-1.42 1.82-1.73 3.04-1.26.3.11.66.34 1.01.5.34.14.68.22.98.07.34-.18.51-.47.63-.8.13-.36.2-.76.33-1.17.27-.84 1.17-1.22 1.79-.71m-.1.12c-.54-.44-1.3-.09-1.54.64-.13.4-.2.82-.32 1.17a1.5 1.5 0 0 1-.72.89c-.27.15-.58.12-.89.02-.43-.15-.87-.44-1.23-.58-1.09-.42-2.38-.18-2.79 1.03l1.2-.2q.05-.01.07.01t.03.07c0 .36-.07.75-.1 1.12l1-.6a.1.1 0 0 1 .11.01c.23.27.46.56.75.75.92.63 2.34.6 3.17-.03a4.7 4.7 0 0 0 1.64-3.28q.02-.65-.38-1.01" fill="#009762"/><path d="M18.46 13q.05.03.05.08-.01.06-.07.07h-.03a1 1 0 0 0-.38-.1c-.51 0-.75.34-.9.75-.15.45-.2.99-.32 1.36a.1.1 0 0 1-.1.04.1.1 0 0 1-.04-.09c.12-.37.17-.9.33-1.35.17-.48.45-.86 1.03-.86q.23.02.43.1m-2.03 2.46.05-.02q.03 0 .05.03.02.01.02.04t-.02.06a2 2 0 0 1-.5.33.07.07 0 0 1-.03-.13q.24-.12.43-.31m-4.93.24-.07.03a.1.1 0 0 1-.07-.07q0-.03.02-.04c.34-.49.86-.66 1.43-.64q.06 0 .07.07 0 .07-.07.07c-.53-.01-1 .14-1.32.58m1.78-.59a.07.07 0 0 1 .01-.14h.02l.1.03q.06.02.06.07a.07.07 0 0 1-.09.07zm-.61 1.49q-.01.07-.08.08a.1.1 0 0 1-.07-.08c.01-.43.23-.78.62-.96h.03q.06 0 .07.07 0 .04-.04.07a.9.9 0 0 0-.53.83" fill="#fff"/><path d="M12.2 17.39h-.05a.07.07 0 0 1-.03-.13l1.15-.7.05-.01q.03 0 .05.03.74 1.24 2.41 1.2c1.84-.05 2.93-1.67 3.13-3.54q0-.07.07-.07.06.01.07.07v.01c-.2 1.95-1.35 3.62-3.27 3.67q-1.72.04-2.5-1.2zm-1.27-1.01a.1.1 0 0 1-.07-.07q0-.06.05-.07l1.37-.27h.02q.06 0 .07.07 0 .05-.06.07z" fill="#33242a"/><path d="M17.86 3.01c-.68-.15-1.4.45-1.6 1.34s.18 1.75.87 1.91 1.4-.45 1.6-1.34-.18-1.75-.86-1.9" fill="#fff"/><clipPath id="d"><path d="M17.86 3.01c-.68-.15-1.4.45-1.6 1.34s.18 1.75.87 1.91 1.4-.45 1.6-1.34-.18-1.75-.86-1.9"/></clipPath><g clip-path="url(#d)"><path d="M18.5 3.37c-.59-.13-1.2.4-1.39 1.2s.15 1.54.74 1.67c.58.14 1.2-.4 1.38-1.2.18-.78-.15-1.53-.73-1.67" fill="#33242a"/><path d="m17.3 3.58.74.77-1.08-.1z" fill="#fff"/></g><path d="M13.73 2.15c-.69-.07-1.31.6-1.4 1.5-.07.9.42 1.67 1.12 1.73s1.31-.62 1.39-1.5c.07-.9-.42-1.68-1.11-1.73" fill="#fff"/><clipPath id="e"><path d="M13.73 2.15c-.69-.07-1.31.6-1.4 1.5-.07.9.42 1.67 1.12 1.73s1.31-.62 1.39-1.5c.07-.9-.42-1.68-1.11-1.73"/></clipPath><g clip-path="url(#e)"><path d="M14.65 2.43c-.6-.05-1.13.55-1.2 1.34-.07.78.36 1.47.94 1.52.6.05 1.13-.55 1.2-1.34s-.35-1.47-.94-1.52" fill="#33242a"/><path d="m13.35 2.96.83.65-1.07.05z" fill="#fff"/></g><path d="M19.05 1.71q.07.01.07.08-.01.08-.08.08a3.3 3.3 0 0 0-1.9.33l-.07-.05a.1.1 0 0 1 .04-.1c.62-.32 1.27-.4 1.94-.34m-3.83-.16.02.05q-.01.07-.08.08l-.07-.03a3 3 0 0 0-1.25-.92.1.1 0 0 1-.04-.11l.07-.05h.03q.79.32 1.32.98m-5.39 2.7a.08.08 0 0 1 .02-.16h.01q.32.04.53-.17l.08-.12.01-.08-.01-.06a.1.1 0 0 0-.1-.03q-.14 0-.26.07l-.05.02a.1.1 0 0 1-.08-.09q0-.04.04-.06.2-.12.43-.1.08.02.14.08.06.07.05.17a.5.5 0 0 1-.13.31.8.8 0 0 1-.68.22m-.7-.39q.05.02.05.07a.08.08 0 0 1-.11.08.6.6 0 0 1-.34-.52.5.5 0 0 1 .1-.31q.07-.1.18-.1t.17.05q.15.1.19.26v.03q0 .05-.06.07a.1.1 0 0 1-.1-.05.4.4 0 0 0-.12-.18l-.07-.02-.06.04-.04.07-.03.14q.01.25.24.37" fill="#33242a"/><path d="M21.9 5.34v.02q-.01.08-.08.08a.1.1 0 0 1-.08-.06c-.15-.57-.3-.84-.86-1.21a.1.1 0 0 1-.03-.12.1.1 0 0 1 .12-.02c.61.4.77.7.93 1.31" fill="#fff"/></svg>