<svg viewBox="0 0 32 32" xmlns="http://www.w3.org/2000/svg"><path d="M28.95 20.33c.3-1.31.2-2.72-.38-4.12a6.7 6.7 0 0 0-2.73-3.14c.27-1 .2-2.07-.27-3.13a5.2 5.2 0 0 0-3.92-2.97c.2-.47.27-1.07.03-1.8C20.84 2.67 17.5 4.33 15 1a4.8 4.8 0 0 0-2.4 4.57c-2.02.35-3.16.78-3.16.78a3.1 3.1 0 0 0-1.25 4.8l-.58.22a4.9 4.9 0 0 0-3.3 4.53q.01 1.32.67 2.4A6.6 6.6 0 0 0 1 24.33 6.77 6.77 0 0 0 7.87 31c2.72 0 5.47-.59 7.94-1.39 1.87.87 4.75 1.39 9.08 1.39a6.11 6.11 0 0 0 4.06-10.67" fill="#BF6952"/><ellipse cx="12.25" cy="13.92" rx="2.92" ry="3.75" fill="#F5F8FA"/><ellipse cx="20.58" cy="13.92" rx="2.92" ry="3.75" fill="#F5F8FA"/><ellipse cx="12.67" cy="13.92" rx="1.67" ry="2.08" fill="#292F33"/><ellipse cx="20.17" cy="13.92" rx="1.67" ry="2.08" fill="#292F33"/><path d="M8.87 21.75c-.2-.41 0-.75.46-.75h15c.46 0 .67.34.46.75 0 0-2.12 4.25-7.96 4.25s-7.96-4.25-7.96-4.25" fill="#292F33"/><path d="M16.83 22.67c-2.3 0-4.3.76-5.24 1.88A9.5 9.5 0 0 0 16.83 26c2.3 0 4-.66 5.25-1.45-.95-1.12-2.94-1.88-5.25-1.88" fill="#F2ABBA"/></svg>